<svg id="Layer_1" data-name="Layer 1" xmlns="http://www.w3.org/2000/svg" viewBox="0 0 61.58 15.35"><defs><style>.cls-1{fill:#ffed00;}.cls-2{fill:#005aa1;}</style></defs><title>Brasilprev Colorido</title><rect class="cls-1" width="61.58" height="15.35"/><path class="cls-2" d="M8.68,6.69a1.81,1.81,0,0,0,1.61-1.89C10.29,3,9,2.62,7.54,2.62H4v8.46h3.5c.84,0,2.93-.09,2.93-2.24C10.45,7.68,10.08,6.87,8.68,6.69ZM6.18,3.93h1A1,1,0,0,1,8.2,5c0,.82-.52,1.08-.89,1.08H6.18Zm.94,5.86H6.18V7.4h1c.85,0,1.12.46,1.12,1.21C8.29,9.77,7.48,9.78,7.12,9.78Z" transform="translate(-0.07)"/><path class="cls-2" d="M24.09,5.95a.7.7,0,0,1,.8-.74h1.63V4.14H24.22c-1.88,0-2.34.84-2.34,1.92,0,2.06,3.37,2,3.37,3.17a.71.71,0,0,1-.78.79H22.06L20.28,4.15H18.14l-2,6.3L14.93,7.74C15.83,7.57,16.2,7,16.2,6a1.66,1.66,0,0,0-1.82-1.81H11v6.92h1.83V5.21h.61a1,1,0,0,1,1,1.05c0,.58-.29,1.05-.76,1h-.51l1.66,3.78h2.92l.44-1.53h1.89l.43,1.53h4.25c1.17,0,2.36-.15,2.36-1.95C27.12,7.05,24.09,7.26,24.09,5.95ZM18.45,8.48l.64-2.83.71,2.83Z" transform="translate(-0.07)"/><path class="cls-2" d="M38.07,4.09H35.14v7H37V8.23h1c1.91,0,2.16-1.26,2.16-2A1.84,1.84,0,0,0,38.07,4.09Zm-.4,3.06H37v-2h.63c.37,0,.8.3.8,1.05A1,1,0,0,1,37.67,7.16Z" transform="translate(-0.07)"/><rect class="cls-2" x="27.72" y="4.15" width="1.78" height="6.92"/><polygon class="cls-2" points="32.33 4.15 30.55 4.15 30.55 11.07 34.41 11.07 34.41 10.02 32.33 10.02 32.33 4.15"/><polygon class="cls-2" points="48.3 7.94 50.59 7.94 50.59 6.87 48.3 6.87 48.3 5.17 50.79 5.17 50.79 4.1 46.5 4.1 46.5 11.03 50.88 11.03 50.88 9.96 48.3 9.96 48.3 7.94"/><path class="cls-2" d="M45.8,5.92A1.67,1.67,0,0,0,44,4.1H40.61v7h1.84V5.17h.61a1,1,0,0,1,1,1.06c0,.58-.29,1.06-.77,1h-.51l1.67,3.8h1.63L44.52,7.72C45.44,7.55,45.8,7,45.8,5.92Z" transform="translate(-0.07)"/><polygon class="cls-2" points="55.42 4.1 54.27 9.16 54.25 9.16 53.2 4.1 51.31 4.1 53.12 11.06 55.24 11.06 57.18 4.1 55.42 4.1"/></svg>